<svg width="32" height="32" viewBox="0 0 32 32" fill="none" xmlns="http://www.w3.org/2000/svg">
<g clip-path="url(#clip0_2061_666)">
<path d="M7.71436 13.9212L10.9064 8.86719L20.1277 19.6845L12.059 22.6105L8.86702 20.9259L7.71436 13.9212Z" fill="#232021"/>
<path d="M3.73918 26.2251C5.84612 28.7335 8.67386 30.5327 11.8386 31.3787C15.0033 32.2246 18.3516 32.0762 21.4291 30.9537C24.5065 29.8312 27.1641 27.7888 29.0409 25.104C30.9177 22.4191 31.9229 19.2218 31.92 15.946C31.9171 12.6702 30.9063 9.47458 29.0248 6.79303C27.1432 4.11147 24.4821 2.07383 21.4027 0.956712C18.3233 -0.160407 14.9747 -0.30289 11.8114 0.548604C8.64824 1.4001 5.82367 3.20432 3.72115 5.71636L15.96 15.96L3.73918 26.2251Z" fill="#232021"/>
<circle cx="16.0488" cy="15.8721" r="6.47267" fill="#235089"/>
<path fill-rule="evenodd" clip-rule="evenodd" d="M19.3008 26.2818C21.4712 25.6038 23.3754 24.2645 24.747 22.451L21.2114 19.7766C20.0295 21.3363 18.1571 22.3438 16.0493 22.3438C12.4746 22.3438 9.57666 19.4459 9.57666 15.8711C9.57666 12.2963 12.4746 9.39844 16.0493 9.39844C18.1006 9.39844 19.929 10.3526 21.1149 11.8414L24.5834 9.08173C23.1678 7.30241 21.2314 6.01005 19.0451 5.38542C16.8588 4.76078 14.5319 4.8351 12.39 5.59798C10.248 6.36087 8.39801 7.77416 7.09878 9.64019C5.79956 11.5062 5.11606 13.7317 5.14388 16.0053C5.17171 18.2789 5.90946 20.4869 7.25396 22.3206C8.59846 24.1543 10.4825 25.5219 12.6425 26.2321C14.8025 26.9424 17.1305 26.9597 19.3008 26.2818Z" fill="white"/>
</g>
<defs>
<clipPath id="clip0_2061_666">
<rect width="32" height="32" fill="white"/>
</clipPath>
</defs>
</svg>
